<?xml version="1.0" encoding="UTF-8"?>
<svg id="Capa_2" data-name="Capa 2" xmlns="http://www.w3.org/2000/svg" viewBox="0 0 687.68 614.83">
  <defs>
    <style>
      .cls-1 {
        font-size: 7.65px;
      }

      .cls-1, .cls-2, .cls-3, .cls-4 {
        font-family: MyriadPro-Regular, 'Myriad Pro';
      }

      .cls-5 {
        letter-spacing: -.04em;
      }

      .cls-6 {
        stroke-width: 1.17px;
      }

      .cls-6, .cls-7, .cls-8, .cls-9, .cls-10, .cls-11, .cls-12, .cls-13, .cls-14, .cls-15, .cls-16, .cls-17, .cls-18, .cls-19, .cls-20, .cls-21, .cls-22, .cls-23 {
        stroke: #1d1d1b;
        stroke-miterlimit: 10;
      }

      .cls-6, .cls-15, .cls-16, .cls-19, .cls-21 {
        fill: #706f6f;
      }

      .cls-2 {
        font-size: 10.71px;
      }

      .cls-24 {
        letter-spacing: 0em;
      }

      .cls-7 {
        stroke-width: 1.06px;
      }

      .cls-7, .cls-8, .cls-9, .cls-10, .cls-11, .cls-12, .cls-13, .cls-14, .cls-17, .cls-18, .cls-22, .cls-23 {
        fill: #fff;
      }

      .cls-25 {
        letter-spacing: 0em;
      }

      .cls-3 {
        font-size: 12.24px;
      }

      .cls-26 {
        letter-spacing: -.01em;
      }

      .cls-27 {
        letter-spacing: 0em;
      }

      .cls-28 {
        letter-spacing: -.01em;
      }

      .cls-29 {
        letter-spacing: -.01em;
      }

      .cls-30 {
        letter-spacing: 0em;
      }

      .cls-8 {
        stroke-width: 1px;
      }

      .cls-31 {
        letter-spacing: 0em;
      }

      .cls-32 {
        letter-spacing: -.01em;
      }

      .cls-9 {
        stroke-width: .81px;
      }

      .cls-33 {
        fill: #e30613;
      }

      .cls-34 {
        letter-spacing: 0em;
      }

      .cls-35 {
        letter-spacing: -.01em;
      }

      .cls-10 {
        stroke-width: 1px;
      }

      .cls-36 {
        letter-spacing: 0em;
      }

      .cls-11 {
        stroke-width: .54px;
      }

      .cls-37 {
        letter-spacing: 0em;
      }

      .cls-38 {
        letter-spacing: .01em;
      }

      .cls-12 {
        stroke-width: 1.11px;
      }

      .cls-13 {
        stroke-width: 1px;
      }

      .cls-14 {
        stroke-width: 1px;
      }

      .cls-39 {
        letter-spacing: 0em;
      }

      .cls-15 {
        stroke-width: 1.36px;
      }

      .cls-16 {
        stroke-width: 1.62px;
      }

      .cls-18 {
        stroke-width: 1.6px;
      }

      .cls-40 {
        letter-spacing: -.07em;
      }

      .cls-41 {
        letter-spacing: 0em;
      }

      .cls-42 {
        letter-spacing: 0em;
      }

      .cls-20 {
        fill: #ff9ffa;
      }

      .cls-4 {
        font-size: 6.88px;
      }

      .cls-43 {
        letter-spacing: -.01em;
      }

      .cls-44 {
        letter-spacing: 0em;
      }

      .cls-45 {
        letter-spacing: -.03em;
      }

      .cls-21 {
        stroke-width: 1.12px;
      }

      .cls-46 {
        letter-spacing: 0em;
      }

      .cls-47 {
        fill: #1d1d1b;
      }

      .cls-22 {
        stroke-width: 1.59px;
      }

      .cls-23 {
        stroke-width: .97px;
      }
    </style>
  </defs>
  <g id="Capa_1-2" data-name="Capa 1">
    <rect class="cls-17" x=".5" y="65.6" width="120.7" height="29.9"/>
    <rect class="cls-17" x="202.05" y="65.6" width="430.83" height="29.9"/>
    <rect class="cls-17" x=".5" y=".59" width="120.7" height="34.77"/>
    <rect class="cls-17" x="202.05" y=".59" width="349.19" height="34.77"/>
    <rect class="cls-17" x="584.84" y=".59" width="48.04" height="34.77"/>
    <rect class="cls-17" x="202.05" y=".59" width="349.19" height="34.77"/>
    <rect class="cls-17" x="584.84" y=".59" width="48.04" height="34.77"/>
    <rect class="cls-17" x=".5" y="65.6" width="120.7" height="34.77"/>
    <rect class="cls-17" x="202.05" y="65.6" width="430.83" height="34.77"/>
    <rect class="cls-20" x="258.69" y="65.6" width="62.5" height="34.77"/>
    <rect class="cls-20" x="70.81" y="297.44" width="50.39" height="82.42"/>
    <rect class="cls-19" x="173.73" y="279.96" width="82.42" height="25.19" transform="translate(507.5 77.62) rotate(90)"/>
    <rect class="cls-15" x="70.81" y="379.27" width="50.39" height="46.68"/>
    <rect class="cls-17" x="202.2" y="512.27" width=".15" height=".41"/>
    <rect class="cls-17" x="202.2" y="484.76" width="326" height="27.51"/>
    <rect class="cls-17" x="611.35" y="484.76" width="75.44" height="27.51"/>
    <rect class="cls-17" x="202.35" y="421.45" width="484.83" height="27.93"/>
    <rect class="cls-16" x="528.2" y="535.95" width="83.15" height="61.57"/>
    <rect class="cls-14" x="154.01" y="583.51" width="48.04" height="29.53"/>
    <rect class="cls-8" x="70.91" y="512.27" width="50.29" height="35.93"/>
    <polygon class="cls-17" points="687.17 449.38 686.78 484.76 611.35 484.76 611.35 535.95 528.2 535.95 528.2 512.27 528.2 512.27 528.2 484.76 202.2 484.76 202.2 512.68 202.35 512.68 202.35 613.04 79.21 613.04 79.21 613.04 20.43 613.04 20.43 548.2 121.2 548.2 121.2 187.1 121.2 187.1 121.2 125.57 121.2 125.57 121.2 65.6 .5 65.6 .5 35.35 121.2 35.35 121.2 .59 202.05 .59 202.05 35.35 518.62 35.35 518.62 .59 584.84 .59 584.84 35.35 632.88 35.35 632.88 65.6 202.05 65.6 202.05 421.45 202.35 421.45 202.35 449.38 687.17 449.38"/>
    <rect class="cls-17" x="202.35" y="421.45" width="484.83" height="27.93"/>
    <rect class="cls-17" x="202.2" y="484.76" width="326" height="27.93"/>
    <rect class="cls-17" x="611.35" y="484.76" width="75.44" height="27.93"/>
    <rect class="cls-13" x="611.35" y="421.45" width="75.44" height="27.93"/>
    <rect class="cls-12" x="429.72" y="65.6" width="75.44" height="34.28"/>
    <text class="cls-3" transform="translate(80.62 340.6)"><tspan x="0" y="0">SSHH</tspan></text>
    <text class="cls-3" transform="translate(275.92 85.98)"><tspan x="0" y="0">SSHH</tspan></text>
    <rect class="cls-6" x="120.12" y=".59" width="82.42" height="34.77"/>
    <rect class="cls-21" x="517.75" y=".59" width="74.51" height="34.77"/>
    <rect class="cls-18" x="20.52" y="567.93" width="100.58" height="46.09"/>
    <rect class="cls-16" x="121.1" y="579.55" width="80.95" height="34.47"/>
    <text class="cls-2" transform="translate(47.59 599.36)"><tspan class="cls-41" x="0" y="0">D</tspan><tspan x="7.17" y="0">ecan</tspan><tspan class="cls-39" x="28.44" y="0">a</tspan><tspan class="cls-46" x="33.56" y="0">t</tspan><tspan x="37.04" y="0">o</tspan></text>
    <text class="cls-2" transform="translate(352.65 439.25)"><tspan class="cls-35" x="0" y="0">A</tspan><tspan x="6.42" y="0">ulas </tspan><tspan class="cls-27" x="26.52" y="0">c</tspan><tspan x="31.26" y="0">on </tspan><tspan class="cls-46" x="45.35" y="0">c</tspan><tspan x="50.08" y="0">칩digo 200</tspan></text>
    <text class="cls-2" transform="translate(552.95 431.73)"><tspan class="cls-35" x="0" y="0">A</tspan><tspan x="6.42" y="0">ulas </tspan><tspan class="cls-27" x="26.52" y="0">c</tspan><tspan x="31.26" y="0">on </tspan><tspan class="cls-46" x="-3.35" y="12.85">c</tspan><tspan x="1.39" y="12.85">칩digo 200</tspan></text>
    <text class="cls-2" transform="translate(623.04 502.36)"><tspan x="0" y="0">Labo</tspan><tspan class="cls-31" x="22.19" y="0">r</tspan><tspan class="cls-39" x="25.64" y="0">a</tspan><tspan class="cls-27" x="30.75" y="0">t</tspan><tspan x="34.24" y="0">o</tspan><tspan class="cls-41" x="40.11" y="0">r</tspan><tspan x="43.66" y="0">io</tspan></text>
    <text class="cls-2" transform="translate(623.58 439.25)"><tspan class="cls-35" x="0" y="0">A</tspan><tspan x="6.42" y="0">ula </tspan><tspan class="cls-24" x="22.28" y="0">M</tspan><tspan x="30.96" y="0">a</tspan><tspan class="cls-46" x="36.12" y="0">g</tspan><tspan x="42.04" y="0">na</tspan></text>
    <text class="cls-2" transform="translate(442.05 78.94)"><tspan class="cls-38" x="0" y="0">M</tspan><tspan x="8.74" y="0">ic</tspan><tspan class="cls-29" x="16.04" y="0">r</tspan><tspan x="19.44" y="0">o D</tspan><tspan class="cls-39" x="34.72" y="0">a</tspan><tspan x="39.84" y="0">ta </tspan><tspan class="cls-26" x="9.42" y="12.85">C</tspan><tspan x="15.51" y="12.85">e</tspan><tspan class="cls-39" x="20.88" y="12.85">n</tspan><tspan class="cls-46" x="26.78" y="12.85">t</tspan><tspan x="30.26" y="12.85">er</tspan></text>
    <text class="cls-2" transform="translate(281.12 500.43)"><tspan class="cls-35" x="0" y="0">A</tspan><tspan x="6.42" y="0">ulas </tspan><tspan class="cls-27" x="26.52" y="0">c</tspan><tspan x="31.26" y="0">on </tspan><tspan class="cls-46" x="45.35" y="0">c</tspan><tspan x="50.08" y="0">칩digo 200</tspan></text>
    <rect class="cls-9" x="156.93" y="348.22" width="44.92" height="57.42"/>
    <rect class="cls-23" x="286.61" y="421.45" width="44.92" height="27.93"/>
    <rect class="cls-22" x="490.5" y="373.61" width="44.92" height="75.77"/>
    <rect class="cls-10" x="202.2" y="469.81" width="45.24" height="15.12"/>
    <text class="cls-4" transform="translate(214.5 477.72)"><tspan class="cls-5" x="0" y="0">T</tspan><tspan class="cls-32" x="3.11" y="0">r</tspan><tspan x="5.29" y="0">o</tspan><tspan class="cls-28" x="9.07" y="0">f</tspan><tspan x="10.99" y="0">eos</tspan></text>
    <text class="cls-1" transform="translate(503.5 397.01)"><tspan class="cls-40" x="0" y="0">T</tspan><tspan x="3.26" y="0">e</tspan><tspan class="cls-37" x="7.09" y="0">r</tspan><tspan x="9.52" y="0">cio </tspan><tspan x="-7.37" y="9.18">Estudia</tspan><tspan class="cls-44" x="15.96" y="9.18">n</tspan><tspan x="20.18" y="9.18">til</tspan><tspan x="3.89" y="18.36">FISI</tspan></text>
    <text class="cls-1" transform="translate(168.02 370.93)"><tspan class="cls-34" x="0" y="0">S</tspan><tspan x="3.79" y="0">ala de </tspan><tspan x="-8.01" y="9.18">c</tspan><tspan class="cls-44" x="-4.59" y="9.18">a</tspan><tspan class="cls-42" x="-.93" y="9.18">t</tspan><tspan x="1.56" y="9.18">ed</tspan><tspan class="cls-25" x="9.7" y="9.18">r</tspan><tspan class="cls-30" x="12.17" y="9.18">치</tspan><tspan x="15.82" y="9.18">ti</tspan><tspan class="cls-42" x="20.14" y="9.18">c</tspan><tspan x="23.52" y="9.18">os</tspan></text>
    <text class="cls-1" transform="translate(380.12 18.2)"><tspan x="0" y="0">Labo</tspan><tspan class="cls-25" x="15.85" y="0">r</tspan><tspan class="cls-44" x="18.31" y="0">a</tspan><tspan class="cls-42" x="21.97" y="0">t</tspan><tspan x="24.45" y="0">o</tspan><tspan class="cls-36" x="28.65" y="0">r</tspan><tspan x="31.18" y="0">ios</tspan></text>
    <text class="cls-1" transform="translate(26.23 19.5)"><tspan class="cls-43" x="0" y="0">A</tspan><tspan x="4.59" y="0">ulas Nue</tspan><tspan class="cls-37" x="32.03" y="0">v</tspan><tspan x="35.63" y="0">o </tspan><tspan class="cls-45" x="41.45" y="0">P</tspan><tspan x="45.32" y="0">abellon</tspan></text>
    <rect class="cls-7" x="20.62" y="218.54" width="136.32" height="65.61"/>
    <rect class="cls-11" x="121.2" y="152.93" width="35.74" height="65.61"/>
    <text class="cls-2" transform="translate(67.93 251.63)"><tspan class="cls-26" x="0" y="0">C</tspan><tspan x="6.09" y="0">omedor </tspan></text>
    <circle class="cls-47" cx="185.06" cy="35.35" r="3.52"/>
    <circle class="cls-47" cx="60.85" cy="35.15" r="3.52"/>
    <circle class="cls-47" cx="393.69" cy="35.35" r="3.52"/>
    <circle class="cls-47" cx="555" cy="35.35" r="3.52"/>
    <circle class="cls-47" cx="156.93" cy="251.75" r="3.52"/>
    <circle class="cls-47" cx="289.94" cy="65.6" r="3.52"/>
    <circle class="cls-47" cx="467.44" cy="65.31" r="3.52"/>
    <circle class="cls-47" cx="121.1" cy="343.3" r="3.52"/>
    <circle class="cls-47" cx="120.12" cy="405.95" r="3.52"/>
    <circle class="cls-47" cx="201.85" cy="292.56" r="3.52"/>
    <circle class="cls-47" cx="156.93" cy="379.27" r="3.52"/>
    <circle class="cls-47" cx="407.25" cy="449.38" r="3.52"/>
    <circle class="cls-47" cx="511.06" cy="449.38" r="3.52"/>
    <circle class="cls-47" cx="578" cy="449.38" r="3.52"/>
    <circle class="cls-47" cx="658.06" cy="449.38" r="3.52"/>
    <circle class="cls-47" cx="139.12" cy="579.55" r="3.52"/>
    <circle class="cls-47" cx="551.34" cy="535.95" r="3.52"/>
    <circle class="cls-47" cx="658.06" cy="484.76" r="3.52"/>
    <circle class="cls-47" cx="328.68" cy="484.93" r="3.52"/>
    <circle class="cls-47" cx="68.32" cy="567.93" r="3.52"/>
    <circle class="cls-33" cx="328.68" cy="462.57" r="3.52"/>
    <circle class="cls-33" cx="407.25" cy="462.57" r="3.52"/>
    <circle class="cls-33" cx="511.06" cy="462.57" r="3.52"/>
    <circle class="cls-33" cx="578" cy="462.57" r="3.52"/>
    <circle class="cls-33" cx="658.06" cy="462.57" r="3.52"/>
    <circle class="cls-33" cx="551.34" cy="512.68" r="3.52"/>
    <circle class="cls-33" cx="578" cy="512.27" r="3.52"/>
    <circle class="cls-33" cx="141.07" cy="459.05" r="3.52"/>
    <circle class="cls-33" cx="139.12" cy="558.06" r="3.52"/>
    <circle class="cls-33" cx="68.32" cy="558.06" r="3.52"/>
    <circle class="cls-33" cx="141.07" cy="405.95" r="3.52"/>
    <circle class="cls-33" cx="141.07" cy="379.27" r="3.52"/>
    <circle class="cls-33" cx="141.07" cy="343.3" r="3.52"/>
    <circle class="cls-33" cx="182.91" cy="292.56" r="3.52"/>
    <circle class="cls-33" cx="182.91" cy="251.75" r="3.52"/>
    <circle class="cls-33" cx="141.07" cy="292.56" r="3.52"/>
    <circle class="cls-33" cx="185.06" cy="48.83" r="3.52"/>
    <circle class="cls-33" cx="60.85" cy="48.83" r="3.52"/>
    <circle class="cls-33" cx="289.94" cy="48.83" r="3.52"/>
    <circle class="cls-33" cx="393.69" cy="48.83" r="3.52"/>
    <circle class="cls-33" cx="467.44" cy="48.83" r="3.52"/>
    <circle class="cls-33" cx="555" cy="48.93" r="3.52"/>
  </g>
</svg>