<?xml version="1.0" encoding="UTF-8"?>
<svg id="Capa_2" data-name="Capa 2" xmlns="http://www.w3.org/2000/svg" viewBox="0 0 898.72 803.36">
  <defs>
    <style>
      .cls-1 {
        stroke-width: 1.17px;
      }

      .cls-1, .cls-2, .cls-3, .cls-4, .cls-5, .cls-6, .cls-7, .cls-8, .cls-9, .cls-10, .cls-11, .cls-12, .cls-13, .cls-14, .cls-15, .cls-16, .cls-17, .cls-18 {
        stroke: #1d1d1b;
        stroke-miterlimit: 10;
      }

      .cls-1, .cls-10, .cls-11, .cls-14, .cls-16 {
        fill: #706f6f;
      }

      .cls-2 {
        stroke-width: 1.06px;
      }

      .cls-2, .cls-3, .cls-4, .cls-5, .cls-6, .cls-7, .cls-8, .cls-9, .cls-12, .cls-13, .cls-17, .cls-18 {
        fill: #fff;
      }

      .cls-19 {
        font-size: 9px;
      }

      .cls-19, .cls-20, .cls-21, .cls-22 {
        font-family: MyriadPro-Regular, 'Myriad Pro';
      }

      .cls-23 {
        letter-spacing: 0em;
      }

      .cls-24 {
        letter-spacing: 0em;
      }

      .cls-25 {
        letter-spacing: -.01em;
      }

      .cls-26 {
        letter-spacing: 0em;
      }

      .cls-27 {
        letter-spacing: 0em;
      }

      .cls-3 {
        stroke-width: 1px;
      }

      .cls-28 {
        letter-spacing: .01em;
      }

      .cls-29 {
        letter-spacing: 0em;
      }

      .cls-4 {
        stroke-width: .81px;
      }

      .cls-30 {
        fill: #e30613;
      }

      .cls-5 {
        stroke-width: 1px;
      }

      .cls-31 {
        letter-spacing: 0em;
      }

      .cls-6 {
        stroke-width: .54px;
      }

      .cls-32 {
        letter-spacing: 0em;
      }

      .cls-33 {
        letter-spacing: 0em;
      }

      .cls-34 {
        letter-spacing: -.05em;
      }

      .cls-35 {
        letter-spacing: -.01em;
      }

      .cls-7 {
        stroke-width: 1.11px;
      }

      .cls-8 {
        stroke-width: 1px;
      }

      .cls-36 {
        letter-spacing: -.07em;
      }

      .cls-9 {
        stroke-width: 1px;
      }

      .cls-37 {
        letter-spacing: -.01em;
      }

      .cls-38 {
        letter-spacing: -.03em;
      }

      .cls-39 {
        letter-spacing: 0em;
      }

      .cls-10 {
        stroke-width: 1.36px;
      }

      .cls-40 {
        letter-spacing: 0em;
      }

      .cls-11 {
        stroke-width: 1.62px;
      }

      .cls-41 {
        letter-spacing: -.01em;
      }

      .cls-13 {
        stroke-width: 1.6px;
      }

      .cls-20 {
        font-size: 14px;
      }

      .cls-15 {
        fill: #ff9ffa;
      }

      .cls-42 {
        letter-spacing: 0em;
      }

      .cls-21 {
        font-size: 10px;
      }

      .cls-43 {
        letter-spacing: 0em;
      }

      .cls-22 {
        font-size: 16px;
      }

      .cls-44 {
        letter-spacing: 0em;
      }

      .cls-45 {
        letter-spacing: 0em;
      }

      .cls-16 {
        stroke-width: 1.12px;
      }

      .cls-46 {
        letter-spacing: 0em;
      }

      .cls-47 {
        letter-spacing: -.01em;
      }

      .cls-48 {
        letter-spacing: 0em;
      }

      .cls-49 {
        fill: #1d1d1b;
      }

      .cls-17 {
        stroke-width: 1.59px;
      }

      .cls-18 {
        stroke-width: .97px;
      }

      .cls-50 {
        letter-spacing: 0em;
      }
    </style>
  </defs>
  <g id="Capa_1-2" data-name="Capa 1">
    <rect class="cls-12" x=".5" y="85.58" width="157.79" height="39.09"/>
    <rect class="cls-12" x="263.99" y="85.58" width="563.24" height="39.09"/>
    <rect class="cls-12" x=".5" y=".59" width="157.79" height="45.45"/>
    <rect class="cls-12" x="263.99" y=".59" width="456.51" height="45.45"/>
    <rect class="cls-12" x="764.42" y=".59" width="62.81" height="45.45"/>
    <rect class="cls-12" x="263.99" y=".59" width="456.51" height="45.45"/>
    <rect class="cls-12" x="764.42" y=".59" width="62.81" height="45.45"/>
    <rect class="cls-12" x=".5" y="85.58" width="157.79" height="45.45"/>
    <rect class="cls-12" x="263.99" y="85.58" width="563.24" height="45.45"/>
    <rect class="cls-15" x="338.04" y="85.58" width="81.7" height="45.45"/>
    <rect class="cls-15" x="92.42" y="388.67" width="65.87" height="107.75"/>
    <rect class="cls-14" x="226.97" y="365.82" width="107.74" height="32.94" transform="translate(663.13 101.44) rotate(90)"/>
    <rect class="cls-10" x="92.42" y="495.65" width="65.87" height="61.03"/>
    <rect class="cls-12" x="264.19" y="669.53" width=".19" height=".54"/>
    <rect class="cls-12" x="264.19" y="633.56" width="426.19" height="35.97"/>
    <rect class="cls-12" x="799.08" y="633.56" width="98.62" height="35.97"/>
    <rect class="cls-12" x="264.38" y="550.8" width="633.83" height="36.51"/>
    <rect class="cls-11" x="690.38" y="700.48" width="108.7" height="80.49"/>
    <rect class="cls-9" x="201.19" y="762.66" width="62.8" height="38.61"/>
    <rect class="cls-3" x="92.54" y="669.53" width="65.75" height="46.97"/>
    <polygon class="cls-12" points="898.21 587.31 897.7 633.56 799.08 633.56 799.08 700.48 690.38 700.48 690.38 669.53 690.38 669.53 690.38 633.56 264.19 633.56 264.19 670.07 264.38 670.07 264.38 801.27 103.4 801.27 103.4 801.27 26.55 801.27 26.55 716.5 158.29 716.5 158.29 244.42 158.29 244.42 158.29 163.99 158.29 163.99 158.29 85.58 .5 85.58 .5 46.04 158.29 46.04 158.29 .59 263.99 .59 263.99 46.04 677.86 46.04 677.86 .59 764.42 .59 764.42 46.04 827.23 46.04 827.23 85.58 263.99 85.58 263.99 550.8 264.38 550.8 264.38 587.31 898.21 587.31"/>
    <rect class="cls-12" x="264.38" y="550.8" width="633.83" height="36.51"/>
    <rect class="cls-12" x="264.19" y="633.56" width="426.19" height="36.51"/>
    <rect class="cls-12" x="799.08" y="633.56" width="98.62" height="36.51"/>
    <rect class="cls-8" x="799.08" y="550.8" width="98.62" height="36.51"/>
    <rect class="cls-7" x="561.63" y="85.58" width="98.62" height="44.81"/>
    <text class="cls-22" transform="translate(105.25 445.1)"><tspan x="0" y="0">SSHH</tspan></text>
    <text class="cls-22" transform="translate(360.57 112.22)"><tspan x="0" y="0">SSHH</tspan></text>
    <rect class="cls-1" x="156.89" y=".59" width="107.74" height="45.45"/>
    <rect class="cls-16" x="676.72" y=".59" width="97.4" height="45.45"/>
    <rect class="cls-13" x="26.67" y="742.29" width="131.49" height="60.26"/>
    <rect class="cls-11" x="158.17" y="757.48" width="105.82" height="45.06"/>
    <text class="cls-20" transform="translate(62.06 783.38)"><tspan class="cls-29" x="0" y="0">D</tspan><tspan x="9.38" y="0">ecan</tspan><tspan class="cls-40" x="37.18" y="0">a</tspan><tspan class="cls-27" x="43.88" y="0">t</tspan><tspan x="48.42" y="0">o</tspan></text>
    <text class="cls-20" transform="translate(460.88 574.06)"><tspan class="cls-35" x="0" y="0">A</tspan><tspan x="8.4" y="0">ulas </tspan><tspan class="cls-27" x="34.68" y="0">c</tspan><tspan x="40.87" y="0">on </tspan><tspan class="cls-27" x="59.29" y="0">c</tspan><tspan x="65.48" y="0">칩digo 200</tspan></text>
    <text class="cls-20" transform="translate(722.73 564.23)"><tspan class="cls-35" x="0" y="0">A</tspan><tspan x="8.4" y="0">ulas </tspan><tspan class="cls-27" x="34.68" y="0">c</tspan><tspan x="40.87" y="0">on </tspan><tspan class="cls-27" x="-4.37" y="16.8">c</tspan><tspan x="1.81" y="16.8">칩digo 200</tspan></text>
    <text class="cls-20" transform="translate(814.37 656.57)"><tspan x="0" y="0">Labo</tspan><tspan class="cls-46" x="29.01" y="0">r</tspan><tspan class="cls-40" x="33.51" y="0">a</tspan><tspan class="cls-27" x="40.21" y="0">t</tspan><tspan x="44.76" y="0">o</tspan><tspan class="cls-50" x="52.44" y="0">r</tspan><tspan class="cls-44" x="57.08" y="0">io</tspan></text>
    <text class="cls-20" transform="translate(815.08 574.06)"><tspan class="cls-35" x="0" y="0">A</tspan><tspan x="8.4" y="0">ula </tspan><tspan class="cls-32" x="29.13" y="0">M</tspan><tspan x="40.47" y="0">a</tspan><tspan class="cls-27" x="47.22" y="0">g</tspan><tspan x="54.96" y="0">na</tspan></text>
    <text class="cls-20" transform="translate(577.75 103.02)"><tspan class="cls-28" x="0" y="0">M</tspan><tspan x="11.42" y="0">ic</tspan><tspan class="cls-31" x="20.97" y="0">r</tspan><tspan x="25.41" y="0">o D</tspan><tspan class="cls-45" x="45.39" y="0">a</tspan><tspan x="52.08" y="0">ta </tspan><tspan class="cls-25" x="12.31" y="16.8">C</tspan><tspan x="20.28" y="16.8">e</tspan><tspan class="cls-45" x="27.29" y="16.8">n</tspan><tspan class="cls-27" x="35.01" y="16.8">t</tspan><tspan x="39.56" y="16.8">er</tspan></text>
    <text class="cls-20" transform="translate(367.36 654.05)"><tspan class="cls-35" x="0" y="0">A</tspan><tspan x="8.4" y="0">ulas </tspan><tspan class="cls-27" x="34.68" y="0">c</tspan><tspan x="40.87" y="0">on </tspan><tspan class="cls-27" x="59.29" y="0">c</tspan><tspan x="65.48" y="0">칩digo 200</tspan></text>
    <rect class="cls-4" x="205.01" y="455.06" width="58.72" height="75.06"/>
    <rect class="cls-18" x="374.54" y="550.8" width="58.72" height="36.51"/>
    <rect class="cls-17" x="641.1" y="488.25" width="58.72" height="99.06"/>
    <rect class="cls-5" x="264.19" y="614.02" width="59.14" height="19.76"/>
    <text class="cls-19" transform="translate(280.27 624.36)"><tspan class="cls-34" x="0" y="0">T</tspan><tspan class="cls-33" x="4.07" y="0">r</tspan><tspan x="6.92" y="0">o</tspan><tspan class="cls-37" x="11.86" y="0">f</tspan><tspan x="14.37" y="0">eos</tspan></text>
    <text class="cls-21" transform="translate(658.08 518.84)"><tspan class="cls-36" x="0" y="0">T</tspan><tspan x="4.26" y="0">e</tspan><tspan class="cls-47" x="9.27" y="0">r</tspan><tspan x="12.44" y="0">cio </tspan><tspan x="-9.63" y="12">Estudia</tspan><tspan class="cls-43" x="20.86" y="12">n</tspan><tspan x="26.37" y="12">til</tspan><tspan x="5.08" y="24">FISI</tspan></text>
    <text class="cls-21" transform="translate(219.51 484.75)"><tspan class="cls-23" x="0" y="0">S</tspan><tspan x="4.96" y="0">ala de </tspan><tspan x="-10.48" y="12">c</tspan><tspan class="cls-43" x="-6" y="12">a</tspan><tspan class="cls-26" x="-1.22" y="12">t</tspan><tspan x="2.03" y="12">ed</tspan><tspan class="cls-39" x="12.68" y="12">r</tspan><tspan class="cls-43" x="15.9" y="12">치</tspan><tspan x="20.68" y="12">ti</tspan><tspan class="cls-26" x="26.33" y="12">c</tspan><tspan x="30.75" y="12">os</tspan></text>
    <text class="cls-21" transform="translate(496.78 23.61)"><tspan x="0" y="0">Labo</tspan><tspan class="cls-39" x="20.72" y="0">r</tspan><tspan class="cls-43" x="23.94" y="0">a</tspan><tspan class="cls-26" x="28.72" y="0">t</tspan><tspan x="31.97" y="0">o</tspan><tspan class="cls-24" x="37.46" y="0">r</tspan><tspan x="40.77" y="0">ios</tspan></text>
    <text class="cls-21" transform="translate(34.13 25.32)"><tspan class="cls-41" x="0" y="0">A</tspan><tspan x="6" y="0">ulas Nue</tspan><tspan class="cls-48" x="41.87" y="0">v</tspan><tspan x="46.58" y="0">o </tspan><tspan class="cls-38" x="54.19" y="0">P</tspan><tspan class="cls-42" x="59.25" y="0">abellon</tspan></text>
    <rect class="cls-2" x="26.8" y="285.53" width="178.21" height="85.78"/>
    <rect class="cls-6" x="158.29" y="199.75" width="46.72" height="85.78"/>
    <text class="cls-20" transform="translate(88.65 328.78)"><tspan class="cls-25" x="0" y="0">C</tspan><tspan x="7.97" y="0">omedor </tspan></text>
    <circle class="cls-49" cx="241.79" cy="46.04" r="4.6"/>
    <circle class="cls-49" cx="79.39" cy="45.77" r="4.6"/>
    <circle class="cls-49" cx="514.53" cy="46.04" r="4.6"/>
    <circle class="cls-49" cx="725.42" cy="46.04" r="4.6"/>
    <circle class="cls-49" cx="205.01" cy="328.94" r="4.6"/>
    <circle class="cls-49" cx="378.89" cy="85.58" r="4.6"/>
    <circle class="cls-49" cx="610.94" cy="85.21" r="4.6"/>
    <circle class="cls-49" cx="158.17" cy="448.62" r="4.6"/>
    <circle class="cls-49" cx="156.89" cy="530.54" r="4.6"/>
    <circle class="cls-49" cx="263.73" cy="382.29" r="4.6"/>
    <circle class="cls-49" cx="205.01" cy="495.65" r="4.6"/>
    <circle class="cls-49" cx="532.26" cy="587.31" r="4.6"/>
    <circle class="cls-49" cx="667.97" cy="587.31" r="4.6"/>
    <circle class="cls-49" cx="755.48" cy="587.31" r="4.6"/>
    <circle class="cls-49" cx="860.15" cy="587.31" r="4.6"/>
    <circle class="cls-49" cx="181.72" cy="757.48" r="4.6"/>
    <circle class="cls-49" cx="720.63" cy="700.48" r="4.6"/>
    <circle class="cls-49" cx="860.15" cy="633.56" r="4.6"/>
    <circle class="cls-49" cx="429.54" cy="633.78" r="4.6"/>
    <circle class="cls-49" cx="89.16" cy="742.29" r="4.6"/>
    <circle class="cls-30" cx="429.54" cy="604.55" r="4.6"/>
    <circle class="cls-30" cx="532.26" cy="604.55" r="4.6"/>
    <circle class="cls-30" cx="667.97" cy="604.55" r="4.6"/>
    <circle class="cls-30" cx="755.48" cy="604.55" r="4.6"/>
    <circle class="cls-30" cx="860.15" cy="604.55" r="4.6"/>
    <circle class="cls-30" cx="720.63" cy="670.07" r="4.6"/>
    <circle class="cls-30" cx="755.48" cy="669.53" r="4.6"/>
    <circle class="cls-30" cx="184.28" cy="599.95" r="4.6"/>
    <circle class="cls-30" cx="181.72" cy="729.39" r="4.6"/>
    <circle class="cls-30" cx="89.16" cy="729.39" r="4.6"/>
    <circle class="cls-30" cx="184.28" cy="530.54" r="4.6"/>
    <circle class="cls-30" cx="184.28" cy="495.65" r="4.6"/>
    <circle class="cls-30" cx="184.28" cy="448.62" r="4.6"/>
    <circle class="cls-30" cx="238.97" cy="382.29" r="4.6"/>
    <circle class="cls-30" cx="238.97" cy="328.94" r="4.6"/>
    <circle class="cls-30" cx="184.28" cy="382.29" r="4.6"/>
    <circle class="cls-30" cx="241.79" cy="63.66" r="4.6"/>
    <circle class="cls-30" cx="79.39" cy="63.66" r="4.6"/>
    <circle class="cls-30" cx="378.89" cy="63.66" r="4.6"/>
    <circle class="cls-30" cx="514.53" cy="63.66" r="4.6"/>
    <circle class="cls-30" cx="610.94" cy="63.66" r="4.6"/>
    <circle class="cls-30" cx="725.42" cy="63.78" r="4.6"/>
  </g>
</svg>